<svg width="380" height="274" viewBox="0 0 380 274" fill="none" xmlns="http://www.w3.org/2000/svg">
<g filter="url(#filter0_d_0_312)">
<path d="M0.877547 13.0228C0.481097 7.11007 5.18081 2.00039 11.1069 1.99366C149.239 1.83685 229.271 -1.1622 369.868 1.77994C375.426 1.89626 379.855 6.53294 379.677 12.09L375.87 131.173L379.684 255.694C379.857 261.334 375.297 266 369.655 266C231.221 266 149.104 266 10.7912 266C4.98033 266 0.356404 261.095 0.757842 255.298C2.22455 234.118 5.2968 187.26 5.16304 168.201C4.97604 141.554 1.26727 115.382 2.06522 88.7751C3.09621 54.3971 1.83313 27.2746 0.877547 13.0228Z" fill="#1BDBC4"/>
<path d="M374.87 131.141L374.869 131.173L374.87 131.204L378.685 255.724C378.84 260.796 374.738 265 369.655 265H368.844H368.035H367.227H366.42H365.615H364.811H364.008H363.206H362.406H361.607H360.809H360.012H359.217H358.423H357.63H356.838H356.047H355.258H354.47H353.683H352.897H352.113H351.329H350.547H349.766H348.986H348.207H347.43H346.653H345.878H345.104H344.331H343.559H342.788H342.018H341.25H340.482H339.716H338.951H338.187H337.424H336.662H335.901H335.141H334.382H333.624H332.868H332.112H331.358H330.604H329.852H329.1H328.35H327.601H326.852H326.105H325.359H324.613H323.869H323.126H322.383H321.642H320.901H320.162H319.424H318.686H317.949H317.214H316.479H315.746H315.013H314.281H313.55H312.82H312.091H311.363H310.636H309.909H309.184H308.459H307.736H307.013H306.291H305.57H304.85H304.13H303.412H302.694H301.978H301.262H300.547H299.832H299.119H298.406H297.695H296.984H296.273H295.564H294.855H294.148H293.441H292.734H292.029H291.324H290.62H289.917H289.215H288.513H287.812H287.112H286.413H285.714H285.016H284.319H283.623H282.927H282.232H281.537H280.844H280.151H279.458H278.767H278.076H277.385H276.696H276.007H275.318H274.631H273.944H273.257H272.572H271.886H271.202H270.518H269.835H269.152H268.47H267.789H267.108H266.427H265.748H265.069H264.39H263.712H263.035H262.358H261.682H261.006H260.331H259.656H258.982H258.309H257.635H256.963H256.291H255.619H254.948H254.278H253.608H252.938H252.269H251.601H250.933H250.265H249.598H248.931H248.265H247.599H246.934H246.269H245.605H244.941H244.277H243.614H242.951H242.289H241.627H240.965H240.304H239.643H238.983H238.323H237.663H237.004H236.345H235.686H235.028H234.37H233.713H233.055H232.399H231.742H231.086H230.43H229.774H229.119H228.464H227.81H227.155H226.501H225.847H225.194H224.541H223.888H223.235H222.582H221.93H221.278H220.627H219.975H219.324H218.673H218.022H217.372H216.721H216.071H215.421H214.771H214.122H213.472H212.823H212.174H211.525H210.877H210.228H209.58H208.932H208.284H207.636H206.988H206.34H205.693H205.045H204.398H203.751H203.104H202.457H201.81H201.163H200.517H199.87H199.224H198.577H197.931H197.284H196.638H195.992H195.346H194.7H194.054H193.408H192.762H192.116H191.47H190.824H190.178H189.532H188.886H188.24H187.594H186.948H186.302H185.656H185.009H184.363H183.717H183.071H182.425H181.778H181.132H180.485H179.839H179.192H178.546H177.899H177.252H176.605H175.958H175.311H174.663H174.016H173.368H172.721H172.073H171.425H170.777H170.128H169.48H168.831H168.183H167.534H166.885H166.235H165.586H164.936H164.286H163.636H162.986H162.336H161.685H161.034H160.383H159.732H159.08H158.428H157.776H157.124H156.471H155.819H155.165H154.512H153.858H153.205H152.55H151.896H151.241H150.586H149.931H149.275H148.619H147.962H147.306H146.649H145.991H145.334H144.676H144.017H143.359H142.7H142.04H141.38H140.72H140.06H139.399H138.737H138.076H137.413H136.751H136.088H135.424H134.761H134.096H133.432H132.767H132.101H131.435H130.769H130.102H129.434H128.767H128.098H127.43H126.76H126.091H125.42H124.75H124.078H123.407H122.734H122.062H121.388H120.715H120.04H119.365H118.69H118.014H117.337H116.66H115.983H115.304H114.626H113.946H113.266H112.586H111.905H111.223H110.541H109.858H109.174H108.49H107.805H107.12H106.434H105.747H105.06H104.372H103.683H102.994H102.304H101.613H100.922H100.23H99.5376H98.8443H98.1503H97.4556H96.7602H96.064H95.3672H94.6696H93.9714H93.2724H92.5726H91.8721H91.1709H90.4689H89.7662H89.0627H88.3585H87.6535H86.9477H86.2411H85.5338H84.8257H84.1167H83.407H82.6965H81.9852H81.273H80.56H79.8462H79.1316H78.4162H77.6999H76.9827H76.2647H75.5459H74.8262H74.1056H73.3842H72.6619H71.9387H71.2147H70.4897H69.7639H69.0371H68.3095H67.5809H66.8514H66.121H65.3897H64.6575H63.9243H63.1902H62.4551H61.7191H60.9821H60.2442H59.5053H58.7654H58.0246H57.2828H56.54H55.7962H55.0514H54.3056H53.5588H52.811H52.0622H51.3124H50.5615H49.8096H49.0567H48.3027H47.5477H46.7917H46.0346H45.2764H44.5172H43.7569H42.9955H42.233H41.4695H40.7048H39.9391H39.1723H38.4043H37.6353H36.8651H36.0939H35.3214H34.5479H33.7732H32.9974H32.2205H31.4424H30.6631H29.8827H29.1011H28.3183H27.5344H26.7493H25.963H25.1755H24.3868H23.5969H22.8058H22.0135H21.22H20.4252H19.6292H18.832H18.0336H17.2339H16.433H15.6308H14.8274H14.0227H13.2168H12.4095H11.601H10.7912C5.55355 265 1.39448 260.58 1.75545 255.367C3.2209 234.205 6.29711 187.301 6.16302 168.194C6.08065 156.458 5.31684 144.813 4.55622 133.216C4.45105 131.613 4.34594 130.011 4.2427 128.409C3.39196 115.21 2.66734 102.057 3.06477 88.8051C4.09693 54.3881 2.83255 27.2325 1.87531 12.9559C1.5169 7.61052 5.76961 2.99972 11.108 2.99366C58.4476 2.93992 98.9575 2.55253 137.415 2.18476C211.2 1.47916 277.43 0.845811 369.847 2.77972C374.853 2.88448 378.838 7.06143 378.678 12.058L374.87 131.141Z" stroke="#1C1C1D" stroke-width="2"/>
</g>
<path d="M169.647 133.614C170.455 132.216 172.473 132.216 173.28 133.614L181.152 147.247C181.959 148.646 180.95 150.393 179.335 150.393H163.593C161.978 150.393 160.969 148.646 161.776 147.247L169.647 133.614Z" fill="#1C1C1D"/>
<path d="M183.634 127.903C184.722 126.029 187.443 126.029 188.531 127.903L199.141 146.177C200.229 148.051 198.869 150.394 196.692 150.394H175.472C173.296 150.394 171.935 148.051 173.024 146.177L183.634 127.903Z" fill="#1C1C1D"/>
<path d="M198.589 121.504C199.987 119.097 203.482 119.097 204.879 121.504L218.508 144.976C219.906 147.384 218.158 150.393 215.363 150.393H188.106C185.31 150.393 183.563 147.384 184.961 144.976L198.589 121.504Z" fill="#1C1C1D"/>
<circle cx="175.609" cy="120.635" r="4.14489" fill="#1C1C1D"/>
<defs>
<filter id="filter0_d_0_312" x="0.733551" y="0.492432" width="378.956" height="273.508" filterUnits="userSpaceOnUse" color-interpolation-filters="sRGB">
<feFlood flood-opacity="0" result="BackgroundImageFix"/>
<feColorMatrix in="SourceAlpha" type="matrix" values="0 0 0 0 0 0 0 0 0 0 0 0 0 0 0 0 0 0 127 0" result="hardAlpha"/>
<feOffset dy="8"/>
<feColorMatrix type="matrix" values="0 0 0 0 0.125 0 0 0 0 0.125 0 0 0 0 0.125 0 0 0 1 0"/>
<feBlend mode="normal" in2="BackgroundImageFix" result="effect1_dropShadow_0_312"/>
<feBlend mode="normal" in="SourceGraphic" in2="effect1_dropShadow_0_312" result="shape"/>
</filter>
</defs>
</svg>
